<svg width="614" height="140" xmlns="http://www.w3.org/2000/svg" version="1.1" fill="#409EFF">

 <g>
  <title>background</title>
  <rect fill="#ffffff" id="canvas_background" height="142" width="616" y="-1" x="-1"/>
 </g>
 <g>
  <title>Layer 1</title>
  <g id="svg_1" fill-rule="evenodd" fill="#409EFF">
   <g stroke="null" id="svg_2" fill="#409EFF">
    <path stroke="null" id="svg_3" d="m64.282413,57.578468c2.76109,0.19883 5.50425,-0.640363 7.829859,-2.395318c1.804499,-1.661646 2.795093,-4.25753 2.648678,-6.940965c0.057354,-1.966016 -0.477234,-3.893043 -1.510211,-5.443905c-1.516486,-1.869997 -3.386712,-3.296504 -5.459993,-4.164579c-1.541586,-0.648564 -2.990696,-1.566242 -4.298291,-2.721958c-0.54548,-0.580057 -0.864512,-1.396434 -0.88289,-2.259217c-0.006142,-1.034766 0.489071,-1.984126 1.277869,-2.449756c1.039782,-0.655802 2.212716,-0.966398 3.392166,-0.898238c2.25975,-0.062232 4.48151,0.688229 6.366118,2.15034l0,-6.396591c-2.134424,-0.869098 -4.386224,-1.274958 -6.64493,-1.197654c-2.690804,-0.154697 -5.353226,0.703777 -7.597517,2.449756c-1.885296,1.5693 -2.961576,4.152605 -2.857777,6.859313c0,4.010339 2.106546,7.058926 6.319648,9.145753c1.771508,0.722929 3.434011,1.770264 4.925604,3.103026c0.572785,0.630315 0.907285,1.502252 0.92936,2.422532c-0.000406,1.003689 -0.450186,1.933579 -1.184929,2.449756c-1.072061,0.716168 -2.300128,1.047444 -3.531568,0.952686c-2.71418,0.025318 -5.345318,-1.095588 -7.411645,-3.157464l0,6.750436c2.410492,1.282543 5.045609,1.879459 7.690449,1.742047z"/>
    <path stroke="null" id="svg_4" fill-rule="nonzero" d="m7.339301,48.980742l52.58081,31.018347c3.596664,1.915499 7.696782,1.915499 11.293446,0l52.672258,-31.018347c2.365008,-1.02854 3.941169,-3.733163 3.941169,-6.762886c0,-3.029723 -1.576161,-5.734346 -3.941169,-6.762886l-52.58081,-31.018347c-3.596664,-1.915499 -7.696782,-1.915499 -11.293446,0l-52.58081,31.018347c-2.350883,1.029404 -3.923372,3.710714 -3.943747,6.724622c-0.020375,3.013907 1.515649,5.725728 3.852299,6.801151zm56.330048,-36.500279c1.25858,-0.526899 2.627839,-0.526899 3.88641,0l50.386131,29.778715l-50.294683,29.751163c-1.258571,0.526899 -2.627839,0.526899 -3.88641,0l-50.591881,-29.751163l50.500433,-29.778715z"/>
    <path stroke="null" id="svg_5" d="m3.075933,75.968645l60.562472,35.794913c1.016987,0.600967 2.207834,0.600967 3.224821,0l60.699693,-35.794913c1.730533,-1.12451 2.413418,-3.69456 1.546286,-5.819473c-0.867132,-2.124903 -2.974192,-3.044795 -4.771099,-2.082945l-59.098722,34.88628l-58.93863,-34.968886c-1.831547,-1.072087 -4.038204,-0.153674 -4.928712,2.051322c-0.890508,2.205007 -0.127648,4.861614 1.703892,5.933702z"/>
    <path stroke="null" id="svg_6" d="m124.420942,98.222446l-59.212353,34.641223l-59.051946,-34.80566c-1.800363,-0.957363 -3.911477,-0.04177 -4.780275,2.073225c-0.868798,2.114994 -0.184604,4.673051 1.549254,5.792299l60.67892,35.627845c1.018935,0.598167 2.21207,0.598167 3.231013,0l60.816399,-35.627845c1.418589,-0.483402 2.456829,-1.936479 2.634918,-3.68771c0.178088,-1.751231 -0.538658,-3.459581 -1.819006,-4.335579c-1.280347,-0.875998 -2.874961,-0.749041 -4.046925,0.322202z"/>
   </g>
   <path stroke="null" id="svg_7" fill="#409EFF" d="m245.27043,67.337142c3.514699,4.209734 5.272024,10.00796 5.272024,17.394857l0,10.127143c0,5.480601 -1.591538,10.206552 -4.774663,14.178c-3.11681,3.89202 -6.996183,5.838 -11.638241,5.838l-41.579357,0l0,-7.148572l41.579357,0c2.984181,0 5.437802,-1.231133 7.360939,-3.693429c2.055766,-2.462296 3.083636,-5.520266 3.083636,-9.174l0,-10.127143c0,-10.325764 -4.310418,-15.885715 -12.931379,-16.68l-22.779121,-2.144571c-6.49888,-0.953143 -11.140864,-2.660847 -13.9261,-5.123143c-2.055766,-1.826867 -3.514682,-4.209704 -4.376774,-7.148572c-0.928415,-2.78001 -1.39261,-6.354266 -1.39261,-10.722857l0,-9.531429c0,-5.480601 1.591538,-10.206552 4.774663,-14.178c3.24944,-3.89202 7.128812,-5.838 11.638241,-5.838l39.987802,0l0,7.148572l-39.987802,0c-2.984181,0 -5.437802,1.231133 -7.360939,3.693429c-2.055766,2.621153 -3.083636,5.679123 -3.083636,9.174l0,9.531429c0,5.957173 1.1605,10.00799 3.481525,12.152572c1.790507,1.747439 5.404628,2.978571 10.842464,3.693429l22.679649,2.144571c5.570465,0.635429 9.947198,2.77998 13.130323,6.433714zm48.476092,38.125715l20.093373,-62.430858l6.366217,0l-28.150617,87.689144c-0.99473,3.33602 -2.752054,5.996847 -5.272024,7.982572c-2.586292,1.985724 -5.305164,2.978571 -8.156716,2.978571l-8.057244,0l0,-7.148572l8.057244,0c1.790507,0 3.382045,-0.595704 4.774663,-1.787143c1.458933,-1.11201 2.486804,-2.621133 3.083636,-4.527429l4.078358,-12.867429l-23.077538,-72.319715l6.366217,0l19.894429,62.430858zm83.390815,-55.997144c2.652607,3.494877 3.978886,8.459113 3.978886,14.892857l0,52.184572l-5.968329,0l0,-52.184572c0,-4.527448 -0.828926,-7.903133 -2.486804,-10.127143c-1.525248,-1.985724 -3.779925,-2.978571 -6.764106,-2.978571l-23.972787,0l0,65.290287l-5.968329,0l0,-72.438858l29.941116,0c4.708373,0 8.455116,1.787123 11.240352,5.361429zm33.55527,7.744286c-2.984181,3.574306 -4.476247,7.903113 -4.476247,12.986572l0,20.85c0,4.44802 1.359436,8.379695 4.078358,11.795143c2.718922,3.256591 6.00147,4.884857 9.847742,4.884857l25.166453,0l0,7.148572l-25.166453,0c-5.570465,0 -10.245614,-2.343123 -14.025572,-7.029429c-3.912588,-4.686306 -5.868857,-10.28597 -5.868857,-16.799143l0,-20.85c0,-6.989754 2.08889,-12.986542 6.266745,-17.990572c4.045217,-5.00403 9.051932,-7.506 15.020294,-7.506l23.773843,0l0,7.148572l-23.773843,0c-4.24417,0 -7.858283,1.787123 -10.842464,5.361429zm93.139085,-45.274286l5.968329,0l0,102.93943l-29.145338,0c-5.570465,0 -10.245614,-2.343123 -14.025572,-7.029429c-3.912588,-4.686306 -5.868857,-10.28597 -5.868857,-16.799143l0,-20.85c0,-7.148611 2.088898,-13.145409 6.266745,-17.990572c4.045217,-5.00403 9.051932,-7.506 15.020294,-7.506l15.418182,0l0,7.148572l-15.418182,0c-4.24417,0 -7.858283,1.787123 -10.842464,5.361429c-2.984181,3.574306 -4.476247,7.903113 -4.476247,12.986572l0,20.85c0,4.44802 1.359436,8.379695 4.078358,11.795143c2.718922,3.256591 6.00147,4.884857 9.847742,4.884857l23.17701,0l0,-95.790859z"/>
  </g>
  <text font-style="normal" stroke="#000" transform="matrix(4.099918776846209,0,0,5.7093781584130605,-1823.6269865582155,-454.048652848988) " xml:space="preserve" text-anchor="start" font-family="Junction, sans-serif" font-size="24" id="svg_11" y="99.453125" x="572.036556" stroke-opacity="null" stroke-width="0" fill="#4d9cea">X</text>
 </g>
</svg>